<svg xmlns="http://www.w3.org/2000/svg" xmlns:xlink="http://www.w3.org/1999/xlink" viewBox="0,0,256,256" width="128px" height="128px"><g fill="none" fill-rule="nonzero" stroke="none" stroke-width="1" stroke-linecap="butt" stroke-linejoin="miter" stroke-miterlimit="10" stroke-dasharray="" stroke-dashoffset="0" font-family="none" font-weight="none" font-size="none" text-anchor="none" style="mix-blend-mode: normal"><g transform="scale(5.33333,5.33333)"><path d="M41,10h-16v28h16c0.6,0 1,-0.4 1,-1v-26c0,-0.6 -0.4,-1 -1,-1z" fill="#00b068"></path><path d="M39,23l-4,4l-4,-4h3v-6h-7v-2h7h2v2v6zM29,26l-4,4l4,4l4,-4z" fill="#ffffff"></path><path d="M27,42l-21,-4v-28l21,-4z" fill="#43a047"></path><path d="M16.8,17h-4.8v14h3v-4.8h1.6c1.7,0 3,-0.4 4,-1.3c1,-0.9 1.5,-2 1.5,-3.4c-0.1,-3 -1.8,-4.5 -5.3,-4.5zM16.3,23.8h-1.3v-4.4h1.3c1.6,0 2.5,0.7 2.5,2.2c0,1.5 -0.9,2.2 -2.5,2.2z" fill="#ffffff"></path></g></g></svg>