<svg xmlns="http://www.w3.org/2000/svg" aria-hidden="true" style="position:absolute;width:0;height:0;overflow:hidden">
  <defs>
    <symbol id="icon-Arrow-1-1" viewBox="0 0 32 32">
      <path fill="#00b068" d="M.403 15.731a.268.268 0 1 0 0 .538v-.538zm0 .538h31.462v-.538H.403v.538z" style="fill:var(--color1, #00b068)"/>
    </symbol>
    <symbol id="icon-Arrow-Down-Quetions" viewBox="0 0 50 32">
      <path stroke-linecap="round" stroke-width="7.111" d="M46.222 3.556 24.889 24.889 3.556 3.556"/>
    </symbol>
    <symbol id="icon-ArrowHero" viewBox="0 0 60 32">
      <path fill="#00b068" d="M2 14a2 2 0 1 0 0 4v-4zm57.414 3.414a2 2 0 0 0 0-2.828L46.686 1.858a2 2 0 1 0-2.828 2.828L55.172 16 43.858 27.314a2 2 0 1 0 2.828 2.828l12.728-12.728zM2 18h56v-4H2v4z" style="fill:var(--color1, #00b068)"/>
    </symbol>
    <symbol id="icon-arrow-narrow-left-REVIEWS" viewBox="0 0 32 32">
      <path fill="none" stroke="#ccc" stroke-linecap="round" stroke-linejoin="round" stroke-width="2.667" d="M26.667 16H5.334m7.999 8-8-8 8-8" style="stroke:var(--color2, #ccc)"/>
    </symbol>
    <symbol id="icon-arrow-narrow-right-Reviews" viewBox="0 0 32 32">
      <path stroke-linecap="round" stroke-linejoin="round" stroke-width="2.667" d="M5.333 16h21.333m-7.999-8 8 8-8 8"/>
    </symbol>
    <symbol id="icon-Arrow-Up-Quetions" viewBox="0 0 50 32">
      <path stroke-linecap="round" stroke-width="7.111" d="M46.222 28.444 24.889 7.111 3.556 28.444"/>
    </symbol>
    <symbol id="icon-Close-Button-DarkVersion" viewBox="0 0 32 32">
      <path fill="none" stroke="#f0f0f0" stroke-linecap="round" stroke-linejoin="round" stroke-width="3.556" d="m1.778 1.778 28.444 28.444" style="stroke:var(--color3, #f0f0f0)"/>
    </symbol>
    <symbol id="icon-Close-Button-DarkVersion2" viewBox="0 0 32 32">
      <path fill="none" stroke="#f0f0f0" stroke-linecap="round" stroke-linejoin="round" stroke-width="3.556" d="M30.222 1.778 1.778 30.222" style="stroke:var(--color3, #f0f0f0)"/>
    </symbol>
    <symbol id="icon-Ellipse-green-Hero" viewBox="0 0 22 32">
      <path fill="#14c57c" d="M0 30.669C5.651 28.2 9.6 22.561 9.6 16S5.651 3.8 0 1.331A15.95 15.95 0 0 1 6.4 0c8.837 0 16 7.163 16 16s-7.163 16-16 16A15.95 15.95 0 0 1 0 30.669z" style="fill:var(--color4, #14c57c)"/>
    </symbol>
    <symbol id="icon-EllipseHero" viewBox="0 0 32 32">
      <path fill="#00b068" d="M32 16c0 8.837-7.163 16-16 16S0 24.837 0 16 7.163 0 16 0s16 7.163 16 16z" style="fill:var(--color1, #00b068)"/>
    </symbol>
    <symbol id="icon-Featured-icon-1" viewBox="0 0 32 32">
      <path fill="#797979" d="M16 0c8.837 0 16 7.163 16 16s-7.163 16-16 16S0 24.837 0 16 7.163 0 16 0z" style="fill:var(--color5, #797979)"/>
      <path d="M16 0c8.837 0 16 7.163 16 16s-7.163 16-16 16S0 24.837 0 16 7.163 0 16 0z" style="fill:var(--color6, #000)"/>
    </symbol>
    <symbol id="icon-Icon-Pensil-Benefits" viewBox="0 0 31 32">
      <path fill="none" stroke="#00b068" stroke-linecap="round" stroke-linejoin="round" stroke-width="2.783" d="M1.391 29.216c2.783 0 6.411.475 8.313-1.426a4.87 4.87 0 1 0-6.887-6.887c-1.902 1.902 0 5.53-1.426 8.313z" style="stroke:var(--color1, #00b068)"/>
      <path fill="none" stroke="#00b068" stroke-linecap="round" stroke-linejoin="round" stroke-width="2.783" d="M9.739 20.868c-.684-.684-1.026-1.026-1.219-1.384a2.782 2.782 0 0 1 .053-2.737c.207-.35.562-.679 1.271-1.336L23.573 2.699a3.067 3.067 0 0 1 4.335 4.335L15.195 20.763c-.657.709-.985 1.064-1.336 1.271a2.784 2.784 0 0 1-2.737.053c-.358-.193-.7-.535-1.384-1.219z" style="stroke:var(--color1, #00b068)"/>
    </symbol>
    <symbol id="icon-Icon-Timer-Benefits" viewBox="0 0 23 32">
      <path fill="none" stroke="#00b068" stroke-linecap="round" stroke-linejoin="round" stroke-width="2.909" d="M20.6 1.455H2.673C2 1.455 1.455 2 1.455 2.673c0 3.877 1.54 7.595 4.281 10.336l1.773 1.773c.176.176.264.264.327.349a1.454 1.454 0 0 1 0 1.739 3.703 3.703 0 0 1-.327.349l-1.773 1.773a14.617 14.617 0 0 0-4.281 10.336c0 .673.545 1.218 1.218 1.218H20.6c.673 0 1.218-.545 1.218-1.218 0-3.877-1.54-7.595-4.281-10.336l-1.773-1.773a3.58 3.58 0 0 1-.327-.349 1.454 1.454 0 0 1 0-1.739 3.58 3.58 0 0 1 .327-.349l1.773-1.773a14.617 14.617 0 0 0 4.281-10.336c0-.673-.545-1.218-1.218-1.218z" style="stroke:var(--color1, #00b068)"/>
    </symbol>
    <symbol id="icon-Load-more-line-Projects" viewBox="0 0 1904 32">
      <path fill="#00b068" d="M24 0C15.163 0 8 7.163 8 16s7.163 16 16 16V0zm0 32h1872V0H24v32z" style="fill:var(--color1, #00b068)"/>
    </symbol>
    <symbol id="icon-location-lets-work-together" viewBox="0 0 24 32">
      <path fill="none" stroke="#00b068" stroke-linecap="round" stroke-linejoin="round" stroke-width="1.524" d="M23.619 12.952c0 10.883-11.429 17.143-11.429 17.143S.761 23.835.761 12.952a11.428 11.428 0 1 1 22.856 0v0z" style="stroke:var(--color1, #00b068)"/>
    </symbol>
    <symbol id="icon-mail-lets-work-together" viewBox="0 0 44 32">
      <path fill="none" stroke="#00b068" stroke-linecap="round" stroke-linejoin="round" stroke-width="2" d="M41.5 5.5v21A4.5 4.5 0 0 1 37 31H7a4.5 4.5 0 0 1-4.5-4.5v-21m39 0A4.5 4.5 0 0 0 37 1H7a4.5 4.5 0 0 0-4.5 4.5m39 0v.486a4.494 4.494 0 0 1-2.14 3.832l-15 9.23a4.503 4.503 0 0 1-4.72 0l-15-9.228A4.494 4.494 0 0 1 2.5 5.988V5.5" style="stroke:var(--color1, #00b068)"/>
    </symbol>
    <symbol id="icon-message-chat-circle--Benefits" viewBox="0 0 32 32">
      <path fill="none" stroke="#00b068" stroke-linecap="round" stroke-linejoin="round" stroke-width="2.667" d="M8.126 14.972A10.66 10.66 0 0 1 8 13.334C8 7.443 12.807 2.667 18.737 2.667s10.737 4.776 10.737 10.667c0 1.331-.245 2.605-.693 3.779-.093.244-.14.366-.161.461s-.029.161-.031.257c-.002.097.011.205.037.42l.537 4.36c.058.472.087.708.009.88a.667.667 0 0 1-.343.335c-.173.075-.409.04-.879-.029l-4.247-.623a2.965 2.965 0 0 0-.434-.048c-.1.001-.169.008-.267.028s-.225.068-.477.163a10.78 10.78 0 0 1-3.787.683c-.558 0-1.105-.042-1.64-.124m-6.923 5.457c3.953 0 7.158-3.283 7.158-7.333s-3.205-7.333-7.158-7.333c-3.953 0-7.158 3.283-7.158 7.333 0 .814.13 1.597.369 2.329.101.309.152.464.168.57.017.11.02.172.014.284-.006.107-.033.227-.086.469l-.815 3.682 3.993-.545c.218-.03.327-.045.422-.044.1.001.153.006.252.026.093.019.232.067.51.165a6.994 6.994 0 0 0 2.332.398z" style="stroke:var(--color1, #00b068)"/>
    </symbol>
    <symbol id="icon-phone-lets-work-together" viewBox="0 0 32 32">
      <path fill="none" stroke="#00b068" stroke-linecap="round" stroke-linejoin="round" stroke-width="1.454" d="M1.818 8.364c0 12.049 9.769 21.818 21.818 21.818h3.273a3.272 3.272 0 0 0 3.273-3.273v-1.996c0-.751-.511-1.405-1.239-1.587l-6.433-1.609c-.64-.16-1.312.08-1.706.607l-1.411 1.881c-.41.547-1.119.788-1.76.553a17.502 17.502 0 0 1-10.39-10.39c-.236-.641.006-1.35.553-1.76l1.881-1.411a1.634 1.634 0 0 0 .607-1.706L8.675 3.058a1.633 1.633 0 0 0-1.587-1.24H5.092a3.272 3.272 0 0 0-3.273 3.273v3.273z" style="stroke:var(--color1, #00b068)"/>
    </symbol>
    <symbol id="icon-RectangleDark-Hero" viewBox="0 0 64 32">
      <path d="M16 0h32c8.837 0 16 7.163 16 16s-7.163 16-16 16H16C7.163 32 0 24.837 0 16S7.163 0 16 0z"/>
    </symbol>
    <symbol id="icon-RectangleHero" viewBox="0 0 64 32">
      <path fill="#e4e5e6" d="M16 0h32c8.837 0 16 7.163 16 16s-7.163 16-16 16H16C7.163 32 0 24.837 0 16S7.163 0 16 0z" style="fill:var(--color7, #e4e5e6)"/>
    </symbol>
    <symbol id="icon-user-Benefits" viewBox="0 0 32 32">
      <path fill="none" stroke="#00b068" stroke-linecap="round" stroke-linejoin="round" stroke-width="2.667" d="M26.667 28c0-1.861 0-2.791-.23-3.548a5.333 5.333 0 0 0-3.556-3.556c-.757-.23-1.687-.23-3.548-.23h-6.667c-1.861 0-2.791 0-3.548.23a5.335 5.335 0 0 0-3.556 3.556c-.23.757-.23 1.687-.23 3.548M16 16a6 6 0 1 0 0-12 6 6 0 0 0 0 12z" style="stroke:var(--color1, #00b068)"/>
    </symbol>
    <symbol id="icon-Vector-close-modal-lets-work" viewBox="0 0 32 32">
      <path stroke-linecap="round" stroke-linejoin="round" stroke-width="4.571" d="m2.286 2.286 27.429 27.429"/>
    </symbol>
    <symbol id="icon-Vector-close-modal-lets-work2" viewBox="0 0 32 32">
      <path stroke-linecap="round" stroke-linejoin="round" stroke-width="4.571" d="M29.714 2.286 2.285 29.715"/>
    </symbol>
    <symbol id="icon-Vector-Done-EmailForm" viewBox="0 0 32 32">
      <path fill="#14c57c" d="M16 0a15.997 15.997 0 0 1 16 16 16.003 16.003 0 0 1-16 16A16.003 16.003 0 0 1 0 16 16.003 16.003 0 0 1 16 0zm-1.993 19.157L10.453 15.6a1.362 1.362 0 0 0-.97-.401 1.37 1.37 0 0 0-1.372 1.371c0 .364.145.713.402.97l4.526 4.526a1.357 1.357 0 0 0 .971.404 1.38 1.38 0 0 0 .971-.404l9.371-9.374a1.366 1.366 0 0 0 .41-.972 1.368 1.368 0 0 0-.848-1.275 1.384 1.384 0 0 0-1.055.003c-.167.07-.318.173-.445.302l-8.405 8.405z" style="fill:var(--color4, #14c57c)"/>
    </symbol>
    <symbol id="icon-Vector-Hero-DarkVersion" viewBox="0 0 44 32">
      <path fill="#f0f0f0" d="M.668 30.052v-2.667h42.667v2.667H.668zm0-12.72v-2.667h42.667v2.667H.668zm0-12.72V1.945h42.667v2.667H.668z" style="fill:var(--color3, #f0f0f0)"/>
    </symbol>
    <symbol id="icon-Vector-Hero-Mobile" viewBox="0 0 44 32">
      <path d="M.668 30.054v-2.667h42.667v2.667H.668zm0-12.72v-2.667h42.667v2.667H.668zm0-12.72V1.947h42.667v2.667H.668z"/>
    </symbol>
    <symbol id="icon-Vector-Projects" viewBox="0 0 32 32">
      <path fill="none" stroke="#00b068" stroke-linecap="round" stroke-linejoin="round" stroke-width="3.556" d="M3.111 28.889 28.889 3.111m0 0h-24m24 0v24" style="stroke:var(--color1, #00b068)"/>
    </symbol>
    <symbol id="icon-burger-menu" viewBox="0 0 32 32">
       <path d="M5.334 23.027v-1.333h21.333v1.333h-21.333zM5.334 16.667v-1.333h21.333v1.333h-21.333zM5.334 10.307v-1.333h21.333v1.333h-21.333z"></path>
     </symbol>
     <symbol id="close" viewBox="0 0 19 19">
        <path d="M18.6667 1.88L16.7867 0L9.33333 7.45334L1.88 0L0 1.88L7.45334 9.33333L0 16.7867L1.88 18.6667L9.33333 11.2133L16.7867 18.6667L18.6667 16.7867L11.2133 9.33333L18.6667 1.88Z"/>
      </symbol>
      <symbol id="moon" viewBox="0 0 32 32">
        <path  stroke-linejoin="round" stroke-linecap="round" stroke-miterlimit="4" stroke-width="2.2857" d="M28 17.053c-0.584 6.134-5.71 10.893-11.947 10.893-6.627 0-11.998-5.372-11.998-11.998 0-6.237 4.759-11.363 10.845-11.944l0.048-0.004c-1.141 1.53-1.827 3.458-1.827 5.546 0 5.155 4.179 9.333 9.333 9.333 2.088 0 4.016-0.686 5.571-1.844l-0.025 0.018z"></path>
      </symbol>
      <symbol id="sun" viewBox="0 0 32 32">
         <path  stroke-linejoin="round" stroke-linecap="round" stroke-miterlimit="4" stroke-width="2.2857" d="M16 1.778v2.586M16 27.636v2.586M5.943 5.943l1.836 1.836M24.224 24.224l1.836 1.836M1.778 16h2.586M27.636 16h2.586M5.943 26.059l1.836-1.836M24.222 7.778l1.836-1.836M22.466 16c0 3.57-2.894 6.465-6.465 6.465s-6.465-2.894-6.465-6.465v0c0-3.57 2.894-6.465 6.465-6.465s6.465 2.894 6.465 6.465v0z"></path>
     </symbol>
<symbol id="icon-Button-down" viewBox="0 0 32 32">
<path stroke-linejoin="miter" stroke-linecap="round" stroke-miterlimit="4" stroke-width="2" d="M22 13l-6 6-6-6"></path>
</symbol>
<symbol id="icon-Button-up" viewBox="0 0 32 32">
<path stroke-linejoin="miter" stroke-linecap="round" stroke-miterlimit="4" stroke-width="2" d="M22 19l-6-6-6 6"></path>
</symbol>
  </defs>
</svg>
<svg xmlns="http://www.w3.org/2000/svg" width="32" height="32" fill="none">
  <path stroke="#F0F0F0" stroke-linecap="round" stroke-linejoin="round" stroke-width="2" d="M24 8 8 24M8 8l16 16"/>
</svg>
<svg xmlns="http://www.w3.org/2000/svg" width="32" height="32" fill="none">
  <path fill="#292929" d="M5.334 23.027v-1.333h21.333v1.333H5.334Zm0-6.36v-1.333h21.333v1.333H5.334Zm0-6.36V8.974h21.333v1.333H5.334Z"/>
</svg>
<svg xmlns="http://www.w3.org/2000/svg" width="32" height="32" fill="none">
  <path fill="#F0F0F0" d="M5.334 23.026v-1.333h21.333v1.333H5.334Zm0-6.36v-1.333h21.333v1.333H5.334Zm0-6.36V8.973h21.333v1.333H5.334Z"/>
</svg>
<svg xmlns="http://www.w3.org/2000/svg" width="48" height="24" fill="none">
  <rect width="48" height="24" fill="#E4E5E6" rx="12"/>
  <circle cx="12" cy="12" r="10" fill="#00B068"/>
</svg>
<svg xmlns="http://www.w3.org/2000/svg" width="32" height="32" fill="none">
  <path stroke="#292929" stroke-linecap="round" stroke-linejoin="round" stroke-width="2" d="M24 8 8 24M8 8l16 16"/>
</svg>
